<svg xmlns="http://www.w3.org/2000/svg" id="symbol-defs">
  <symbol id="hatenabookmark" viewBox="0 0 500 500">
    <desc>はてなブックマークのロゴアイコン</desc>
    <rect width="500" height="500" rx="101.9" ry="101.9" fill="#00a4de"/><g fill="#fff"><path d="M278.2,258.1q-13.6-15.2-37.8-17c14.4-3.9,24.8-9.6,31.4-17.3s9.8-17.8,9.8-30.7A55,55,0,0,0,275,166a48.8,48.8,0,0,0-19.2-18.6c-7.3-4-16-6.9-26.2-8.6s-28.1-2.4-53.7-2.4H113.6V363.6h64.2q38.7,0,55.8-2.6c11.4-1.8,20.9-4.8,28.6-8.9a52.5,52.5,0,0,0,21.9-21.4c5.1-9.2,7.7-19.9,7.7-32.1C291.8,281.7,287.3,268.2,278.2,258.1Zm-107-71.4h13.3q23.1,0,31,5.2c5.3,3.5,7.9,9.5,7.9,18s-2.9,14-8.5,17.4-16.1,5-31.4,5H171.2V186.7Zm52.8,130.3c-6.1,3.7-16.5,5.5-31.1,5.5H171.2V273h22.6c15,0,25.4,1.9,30.9,5.7s8.4,10.4,8.4,20S230.1,313.4,223.9,317.1Z"/><path d="M357.6,306.1a28.8,28.8,0,1,0,28.8,28.8A28.8,28.8,0,0,0,357.6,306.1Z"/><rect x="332.6" y="136.4" width="50" height="151.52"/></g>
  </symbol>
  <symbol id="facebook" viewBox="0 0 333.61624 333.61874">
    <desc>フェイスブックのロゴアイコン</desc>
    <g transform="matrix(1.25 0 0 -1.25 -154 484)"><g transform="translate(376 121)"><path d="m0 0c8.13 0 14.7 6.6 14.7 14.7v237c0 8.14-6.6 14.7-14.7 14.7h-237c-8.14 0-14.7-6.59-14.7-14.7v-237c0-8.13 6.59-14.7 14.7-14.7z" fill="#49629d"/></g><g transform="translate(308 121)"><path d="m0 0v103h34.7l5.19 40.3h-39.9v25.7c0 11.7 3.24 19.6 20 19.6l21.3 0.01v36c-3.69 0.49-16.4 1.59-31.1 1.59-30.8 0-51.8-18.8-51.8-53.2v-29.7h-34.8v-40.3h34.8v-103z" fill="#fff"/></g></g>
  </symbol>
  <symbol id="twitter" viewBox="0 0 341.73749 277.72501">
    <desc>ツイッターのロゴアイコン</desc>
    <g transform="matrix(1.25,0,0,-1.25,0,277.725)"><g transform="scale(0.1)"><path d="m 2733.9,1958.77 c -100.59,-44.61 -208.69,-74.76 -322.15,-88.32 115.81,69.42 204.74,179.34 246.62,310.32 -108.37,-64.28 -228.41,-110.96 -356.17,-136.12 -102.32,109.01 -248.09,177.13 -409.41,177.13 -309.77,0 -560.91,-251.13 -560.91,-560.88 0,-43.96 4.97,-86.77 14.53,-127.82 -466.156,23.39 -879.445,246.69 -1156.09,586.03 -48.281,-82.84 -75.933,-179.18 -75.933,-281.98 0,-194.59 99.019,-366.27 249.519,-466.85 -91.941,2.91 -178.426,28.14 -254.051,70.15 -0.042,-2.34 -0.05,-4.68 -0.05,-7.05 0,-271.76 193.34,-498.458 449.929,-549.982 -47.066,-12.816 -96.621,-19.668 -147.769,-19.668 -36.145,0 -71.281,3.508 -105.527,10.059 71.375,-222.84 278.511,-385 523.953,-389.527 C 638.43,333.832 396.582,244.16 133.801,244.16 88.5273,244.16 43.8789,246.809 0,251.988 248.223,92.8516 543.047,0 859.797,0 1891.48,0 2455.64,854.672 2455.64,1595.86 c 0,24.32 -0.54,48.51 -1.62,72.56 109.58,79.08 204.68,177.87 279.88,290.35"/></g></g>
  </symbol>
  <symbol id="tag" viewbox="0 0 512 512">
    <desc>タグ アイコン</desc>
    <path d="M239.76 12.201 0 .011l12.19 239.737 272.262 272.24L512 284.441 239.76 12.201zm-89.408 138.152c-15.713 15.713-41.169 15.713-56.881 0-15.713-15.713-15.713-41.169 0-56.893 15.712-15.713 41.168-15.713 56.881 0 15.714 15.723 15.714 41.179 0 56.893z"/>
  </symbol>
  <symbol id="category" viewbox="0 0 512 512">
    <desc>カテゴリー アイコン</desc>
    <path d="m209.403 111.029-64.432-48.324H0v321.572l48.324-81.272V159.353H386.59v32.216h48.323v-80.54z"/><path d="m512 229.511-80.392 146.817-34.303 65.628c-2.409 3.816-7.017 7.34-10.715 7.34H16.108c-6.418 0-8.571-4.058-8.699-7.146v-.193l114.695-212.444c1.851-3.587 2.997-5.726 6.759-5.726h376.378c3.699-.003 6.759 2.635 6.759 5.724z"/>
  </symbol>
  <symbol id="rightArrow" viewbox="0 0 512 512">
    <desc>右矢印 アイコン</desc>
    <path d="M163.916 0 92.084 71.822l184.174 184.174L92.084 440.178 163.916 512l256-256.004z"/>
  </symbol>
  <symbol id="leftArrow" viewbox="0 0 512 512">
    <desc>左矢印 アイコン</desc>
    <path d="M419.916 71.821 348.084 0l-256 256.005 256 255.995 71.832-71.822-184.174-184.173z"/>
  </symbol>
</svg>