<svg xmlns="http://www.w3.org/2000/svg" id="symbol-defs">
  <symbol id="hatenabookmark" viewBox="0 0 500 500">
    <desc>はてなブックマークのロゴアイコン</desc>
    <rect width="500" height="500" rx="101.9" ry="101.9" fill="#00a4de"/><g fill="#fff"><path d="M278.2,258.1q-13.6-15.2-37.8-17c14.4-3.9,24.8-9.6,31.4-17.3s9.8-17.8,9.8-30.7A55,55,0,0,0,275,166a48.8,48.8,0,0,0-19.2-18.6c-7.3-4-16-6.9-26.2-8.6s-28.1-2.4-53.7-2.4H113.6V363.6h64.2q38.7,0,55.8-2.6c11.4-1.8,20.9-4.8,28.6-8.9a52.5,52.5,0,0,0,21.9-21.4c5.1-9.2,7.7-19.9,7.7-32.1C291.8,281.7,287.3,268.2,278.2,258.1Zm-107-71.4h13.3q23.1,0,31,5.2c5.3,3.5,7.9,9.5,7.9,18s-2.9,14-8.5,17.4-16.1,5-31.4,5H171.2V186.7Zm52.8,130.3c-6.1,3.7-16.5,5.5-31.1,5.5H171.2V273h22.6c15,0,25.4,1.9,30.9,5.7s8.4,10.4,8.4,20S230.1,313.4,223.9,317.1Z"/><path d="M357.6,306.1a28.8,28.8,0,1,0,28.8,28.8A28.8,28.8,0,0,0,357.6,306.1Z"/><rect x="332.6" y="136.4" width="50" height="151.52"/></g>
  </symbol>
  <symbol id="facebook" viewBox="0 0 333.61624 333.61874">
    <desc>フェイスブックのロゴアイコン</desc>
    <g transform="matrix(1.25 0 0 -1.25 -154 484)"><g transform="translate(376 121)"><path d="m0 0c8.13 0 14.7 6.6 14.7 14.7v237c0 8.14-6.6 14.7-14.7 14.7h-237c-8.14 0-14.7-6.59-14.7-14.7v-237c0-8.13 6.59-14.7 14.7-14.7z" fill="#49629d"/></g><g transform="translate(308 121)"><path d="m0 0v103h34.7l5.19 40.3h-39.9v25.7c0 11.7 3.24 19.6 20 19.6l21.3 0.01v36c-3.69 0.49-16.4 1.59-31.1 1.59-30.8 0-51.8-18.8-51.8-53.2v-29.7h-34.8v-40.3h34.8v-103z" fill="#fff"/></g></g>
  </symbol>
  <symbol id="twitter" viewBox="0 0 341.73749 277.72501">
    <desc>ツイッターのロゴアイコン</desc>
    <g transform="matrix(1.25,0,0,-1.25,0,277.725)"><g transform="scale(0.1)"><path d="m 2733.9,1958.77 c -100.59,-44.61 -208.69,-74.76 -322.15,-88.32 115.81,69.42 204.74,179.34 246.62,310.32 -108.37,-64.28 -228.41,-110.96 -356.17,-136.12 -102.32,109.01 -248.09,177.13 -409.41,177.13 -309.77,0 -560.91,-251.13 -560.91,-560.88 0,-43.96 4.97,-86.77 14.53,-127.82 -466.156,23.39 -879.445,246.69 -1156.09,586.03 -48.281,-82.84 -75.933,-179.18 -75.933,-281.98 0,-194.59 99.019,-366.27 249.519,-466.85 -91.941,2.91 -178.426,28.14 -254.051,70.15 -0.042,-2.34 -0.05,-4.68 -0.05,-7.05 0,-271.76 193.34,-498.458 449.929,-549.982 -47.066,-12.816 -96.621,-19.668 -147.769,-19.668 -36.145,0 -71.281,3.508 -105.527,10.059 71.375,-222.84 278.511,-385 523.953,-389.527 C 638.43,333.832 396.582,244.16 133.801,244.16 88.5273,244.16 43.8789,246.809 0,251.988 248.223,92.8516 543.047,0 859.797,0 1891.48,0 2455.64,854.672 2455.64,1595.86 c 0,24.32 -0.54,48.51 -1.62,72.56 109.58,79.08 204.68,177.87 279.88,290.35"/></g></g>
  </symbol>
  <symbol id="tag" viewbox="0 0 512 512">
    <desc>タグ アイコン</desc>
    <path d="M239.76 12.201 0 .011l12.19 239.737 272.262 272.24L512 284.441 239.76 12.201zm-89.408 138.152c-15.713 15.713-41.169 15.713-56.881 0-15.713-15.713-15.713-41.169 0-56.893 15.712-15.713 41.168-15.713 56.881 0 15.714 15.723 15.714 41.179 0 56.893z"/>
  </symbol>
  <symbol id="category" viewbox="0 0 512 512">
    <desc>カテゴリー アイコン</desc>
    <path d="m209.403 111.029-64.432-48.324H0v321.572l48.324-81.272V159.353H386.59v32.216h48.323v-80.54z"/><path d="m512 229.511-80.392 146.817-34.303 65.628c-2.409 3.816-7.017 7.34-10.715 7.34H16.108c-6.418 0-8.571-4.058-8.699-7.146v-.193l114.695-212.444c1.851-3.587 2.997-5.726 6.759-5.726h376.378c3.699-.003 6.759 2.635 6.759 5.724z"/>
  </symbol>
  <symbol id="rightArrow" viewbox="0 0 512 512">
    <desc>右矢印 アイコン</desc>
    <path d="M163.916 0 92.084 71.822l184.174 184.174L92.084 440.178 163.916 512l256-256.004z"/>
  </symbol>
  <symbol id="leftArrow" viewbox="0 0 512 512">
    <desc>左矢印 アイコン</desc>
    <path d="M419.916 71.821 348.084 0l-256 256.005 256 255.995 71.832-71.822-184.174-184.173z"/>
  </symbol>
  <symbol id="logo" viewbox="0 0 700 190">
        <desc>サイトのロゴ</desc>
        <path
          d="M400.13 1.03c4.92-1.57 10.07 1.14 12.79 5.29 1.99 2.49 2.68 6.71 0 8.66-5.92 3.8-24.39-4.24-12.79-13.95ZM269 19c5.15-1.25 12.49-.45 15.61-2.85 5.31-4.11 1.01-15.79 10.35-13.68 7.85 1.78 3.68 9.4 1.04 13.53h15c-3.04 9.19-11.39 2.95-18.89 10.14-5.83 5.59-8.1 16.54-11.19 21.86l-11.16 13c-4.24 5.7-5.01 10.74-12.76 12 1.67-5.71 3.87-6.3 6.79-11 6.93-11.13 11.22-17.08 15.29-30 2.39-7.59-5.55-7.89-8.65-5.26-3.36 2.85-1.26 6.41-4.43 13.26-6.14-3.37-4.15-7.44-9.05-10.3-3.5-2.04-15.5 3.36-17.01-4.78-1.55-8.35 12.93-4.29 16.59-7.66 3.48-3.2-.72-7.3 1.51-11.02 2.52-4.22 8.08-1.33 9.93 1.94 1.27 2.23.89 7.97 1.03 10.82Zm-135-6-27 1.43-13 2.94c-3.81.07-9.84-2.57-8.34-7.33C87.45 4.32 95.4 5.26 100 4.6c10.03-1.08 25.79-.91 36 0 3.57-.04 8.89-1.15 12.13 0 6.29 2.93 3.62 9.5 0 13.49-3.45 4.36-13.59 14.47-19.13 15.48-2.28.41-3.83-.06-6-.57-.57 11.41-.72 14.6-10 22.57-3.76 3.23-5.69 4.8-10 7.35-5.17 2.6-11.39 6.01-14.71 4.36-2.29.34-2.04-1.66-2.04-3.78.13-4.38 13.5 2.62 28.27-21.5 2.69-6.68-.75-10.35 1.66-13.42 1.8-2.3 4.69-.59 7.82-1.73 5.86-2.14 9.06-8.09 10-13.85ZM69 65c-7.83-2.3-8.63-7.31-13.33-13L38.09 33c-2.39-2.58-7.81-10.84-11.18-10.93-5.3-.14-9.02 8.79-14.91 11.04-4.4 1.67-10.74.29-11.4-5.13-1.06-8.7 7.61-12.59 13.4-16.72 4.59-3.28 8.03-6.88 13.96-3.81C33.45 10.3 36.82 18.06 40.22 23l12.35 16 8.22 13c3.86 5.4 6.74 6.07 8.21 13Zm395-51c-2.93 9.51-16.46 14.17-24 19.63-3.36 2.44-18.88 17.94-21.62 21.37l-5.28 7.72c-2.81 3.21-8.32 4.43-11.36.85-4.3-5.06.86-10.56 5.26-13.02l9-4.26 20-14.54 11-6.37c5.88-3.96 10.18-10.28 17-11.38Zm-131.87 1.94c3.43-.15 2.95.3 5.87.6l18-.54c6.68-.03 14.09-2.75 19.94 1.65 2.22 1.67 3.59 3.54 3.87 6.35.32 3.15-1.43 6.88-2.13 10-1.3 5.81-.28 19.77-4.96 23.4-4.22 3.27-6.3-1.38-17.72-1.4-3.51-.01-8.7-.21-12 .53-3.28.73-6.57 2.89-9.77.69-3.58-2.46-3.31-8.29-4.27-12.22-2.5-10.13-6.15-11.85-1.5-23 1.43-3.41 1.44-4.25 4.67-6.06ZM339 46h16c11.22-.14 10.06-3.36 10-13-.02-2.13.26-5.51-1.6-6.98-1.48-1.17-4.58-1.01-6.4-1.02-3.99-.03-12.52-.64-15.57 1.85C336.98 30.49 338.34 41 339 46ZM173.02 25.83c4.62-.61 8.56 1.1 13.98 1.17h24c11.93.08 7.35 7.25 4.77 8.83C213.5 37.22 209.63 37 207 37h-21l-13.98.77c-7.05-1.25-5.78-8.46 1-11.94Zm294.33 81.51c.84-.57 1.33-1.79 1.82-2.66l5.44-10.6 14.25 4.51s-2.1 3.49-3.08 5.15c-.31.53-1.04 1.57-.57 2.16.41.5 1.95.38 2.56.37l34.76-2.79.38 9.32-41.79 4.45-3.88.75-1.91 2.53-20.45 34.31-10.9-2.94s8.96-16.83 9.65-18.03l4.87-9.2c.4-.81 1.73-3.12 1.53-3.9-.38-1.46-2.37-.94-3.46-.79l-10.18 1.1-2.21-11.9s22.58-1.44 23.17-1.84Zm-165.22 3.68-1.31-10.84 75.88-2.85.06 7.96s-2.41.71-3.01 1.01c-1.32.66-2.04 1.53-2.83 2.73l-15.3 23.23-5.83 7.36c-.41.52-2.15 2.53-2.26 3.01-.2.89.82 1.43 1.44 1.81l5.05 3.42c.54.42 1.53 1.32 2.27 1.1.8-.24 1.54-1.94 1.92-2.66 1.09-2.08 3.67-6.85 4.06-8.98l11.02 4.83c-.32 2.03-1.47 3.97-2.44 5.76l-2.39 4.37c-.55.83-2.38 3.17-2.02 4.14.21.57 1.27 1.52 1.73 1.96l3.97 3.83 2.98 3.07 7.67 8.39 3.16 3.68c.43.54 1.39 2.1 1.39 2.1l-5.45 8.42-2.49-3.03c-4.02-4.96-8.17-9.72-12.59-14.33-1.3-1.34-6.23-5.53-6.94-5.24-.78-.06-4.92 5.13-6.81 7.25l-8.69 8.3-3.89 3.29c-.56.43-1.84 1.52-2.35 1.66l-12.34-4.19s1.73-1.16 2.53-1.73l4.81-3.56 1.86-1.7c2.6-2.26 5.27-4.46 7.58-7.04 1.35-1.5 7.44-8.7 7.31-9.75-.09-.76-1.25-1.49-1.83-1.91l-5.28-3.52c-.6-.36-1.58-1.09-2.29-.99-1.04.16-3.27 2.59-4.11 3.35-2.49 2.25-5.51 4.5-8.51 6.02-4.48 2.27-9.71 3.12-14.68 2.26-7.15-1.59-8.6-1.94-12.21-4.69-3.76-2.85-6.5-6.23-6.95-11.1-.2-2.16.25-4.12 1.21-6.02 2.63-5.23 6.59-7.39 12.08-8.66l1.74-.46c1.9-.28 3.81-.28 5.73-.28 3.27.01 8.29 1.26 11.47 2.2l7.12 2.7c.66.3 2.37 1.26 2.98 1.13.66-.14 1.24-.93 1.66-1.43l3.31-4.14 7.26-10.12 4.38-6.9 2.47-4.37c.25-.6.57-1.36 0-1.93-.4-.45-1.3-.37-1.87-.37l-51.43 2.45Zm313.44 54.83c-1.35-.41-3.6-1.23-5.05-2.08-4.32-2.51-9.34-8.02-9.4-13.33-.03-2.09-.04-2.79.58-4.83.46-1.51 1.27-2.88 2.2-4.14 1.03-1.42 2.88-3.46 4.33-4.41 2.45-1.62 7.84-3.17 10.78-3.19h4.13c1.67.03 4.58.48 4.58.48 3.64.62 8.63 2.14 12.17 3.32 1.23.41 2.77.91 3.9 1.54.72.41 1.21.93 2.06.46.84-.45 2-2.01 2.57-2.81l2.83-3.91 9.77-15.64 2.83-5.52c.22-.52.91-1.58.61-2.1-.53-.9-2.37-.45-3.23-.33L608 112.97l-2.38-11.16 78.92-4.02 1.03 8.57s-2.03.08-2.78.26c-.84.21-2.26.9-2.84 1.54-1.19 1.31-5.73 9.61-5.73 9.61l-11.18 17.29-5.14 7.32c-.53.81-1.68 1.99-1.32 2.98.33.88 7.63 5.36 7.63 5.36.49.3 1.2.85 1.81.7.73-.19 1.75-2.15 2.15-2.82 1.26-2.17 3.59-7.47 3.84-9.9l11.47 4.61c-1.39 3.5-3.07 6.83-4.91 10.12 0 0-2.39 3.9-2.37 4.39.02.74.78 1.27 1.32 1.65 1.14.8 7.04 5.9 8.18 6.99l10.23 9.44c.86.94 4.33 3.72 3.84 4.96l-4.93 8.16s-3.58-3.71-5.17-5.13L676.6 172.5s-3.62-2.76-4.56-3.58c-.52-.45-1.34-1.04-2.08-.96-.69.06-1.5 1.27-1.88 1.8l-7.32 8.74-6.19 5.99c-1.15 1.1-3.61 3.3-5.36 4.22l-11.47-3.17c.58-.33 5.17-4.68 5.17-4.68l4.02-3.78 8.54-9.71 3.21-4.51c.31-.49 1.13-1.5 1.03-2.06-.1-.6-.99-1.17-1.47-1.48-1.13-.74-6.48-4.03-7.56-4.7-.62-.38-1.27-.94-2.03-.61-.49.22-1.32 1.29-1.72 1.74l-3.84 4.01c-2.86 2.46-8.5 5.76-12.15 6.7-1.91.48-6.46.79-8.49.77-1.4-.02-5.53-.98-6.88-1.38Zm-118.42-33.1c.43-1.75 3.07-8.36 3.21-9.26 7.15-.11 14.69.69 34.45-.66l-1.61 9.2-20.88.23c-1.33-.01-3.86.16-3.81 2.07.02.9.83 1.48 1.46 2 .9.73 3.99 3.04 4.24 3.99.23.85-.78 3.65-1.08 4.6l-2.69 9.66c-.18 1.28.76 1.78 1.65 2.47l6.76 6.52 7.95 8.72c1.11 1.23 8.9 9.89 8.55 10.98 0 0-2.51 1.74-3.07 2.13-1.49 1.06-3.2 2.43-4.81 3.22 0 0-4.11-4.8-5.22-6.08-.74-.84-5.54-5.95-6.42-6.7l-5.8-5.4c-.54-.48-2.51-2.45-3.14-2.34-.67.11-.79 1.79-.93 2.35l-1.79 7.13c-1.54 4.75-3.91 9.08-8.59 11.32-1.5.71-2.71 1.09-4.36 1.1h-1.61c-2.12-.03-3.02-.45-4.82-1.51-1.32-.77-2.55-1.54-3.61-2.67-2.65-2.84-3.72-7.66-3.73-11.46-.01-7.05 1-11.69 4.83-17.71 2.64-4.16 6.59-7.3 11.69-7.36 1.56-.02 2.36-.08 3.9.31.68.18 1.6.6 2.24.18.69-.44 1.39-3.07 1.69-3.94l1.84-6.68 1.06-4.14-.18-2.3-7.37.03Zm-170.12 16.54c.89-1.13 2.6-2.32 2.27-3.42-.29-1.01-2.98-2.18-3.96-2.45l-4.36-.92c-3.57-.74-4.4-1.24-8.26-1.09-2.24.08-3.46.27-5.51 1.33-1.01.51-1.49.82-2.06 1.66-.58.83-1 2.77-.59 3.97 1.41 4.15 8.22 5.56 12.06 5.52l4.03-.39c.83-.27 3.01-1.27 3.64-1.79.74-.62 1.82-1.45 2.74-2.42Zm312.17-1.15-2.75-1.04-8.03-2.33-7.12-.54c-.76 0-3.44.28-4.13.48-2.02.59-4.6 2.55-4.79 4.81-.09 1.13.31 2.01.82 2.99.46.88.94 1.42 1.7 2.06 3.16 2.66 5.79 2.35 9.62 2.31.97-.02 3.46-.31 4.36-.6 1.23-.41 2.89-1.48 4.13-2.11 2.95-1.49 2.67-1.59 4.73-3.92.82-.92 1.13-.8 1.46-2.11Zm-144.77 10.88c-1.96.4-2.97 1.59-4.12 3.13-2.46 3.28-3.5 7-3.45 11.06.02 2.08.86 5.7 3.67 5.21 1.71-.3 2.82-1.85 3.42-3.37 1.25-3.14 1.8-6.61 2.55-9.89l1.2-3.91c-.17-1.75-1.76-2.32-3.27-2.23Z"
        />
      </symbol>
</svg>